<svg xmlns="http://www.w3.org/2000/svg" width="100" height="100" fill="currentColor" viewBox="0 0 16 16">
  <path d="M12 2a2 2 0 0 1 2 2v2a2 2 0 0 1-2 2H4a2 2 0 0 1-2-2V4a2 2 0 0 1 2-2h8zM2 1a1 1 0 0 0-1 1v6a1 1 0 0 0 1 1h12a1 1 0 0 0 1-1V2a1 1 0 0 0-1-1H2zM2 5a1 1 0 0 1 1-1h2a1 1 0 0 1 1 1v2a1 1 0 0 1-1 1H4a1 1 0 0 1-1-1V4a1 1 0 0 1 1-1zm9.5 3.5a1 1 0 0 1 1 1H14a1 1 0 0 1-2 0H9.063l1.92 1.537a.5.5 0 0 1-.5.375l-2-1.5a.5.5 0 0 1-.338-.537L4.6 7.35A1 1 0 0 1 5.5 6.5v1.5a1 1 0 0 1-2 0V5.25l-1.063.846a.5.5 0 0 1-.412.218l-1.5-1.5a.5.5 0 0 1-.633-.633l2.188-1.063a.5.5 0 0 1 .338-.188l1.92 1.537zM13.5.5a.5.5 0 0 1 .5.5v1.5a.5.5 0 0 1-.5.5h-9a.5.5 0 0 1-.5-.5v-1.5a.5.5 0 0 1 .5-.5H13zm1.66 7.334l-.708-.707A.5.5 0 0 1 14.23 5.25l-2.52 1.81a.5.5 0 0 1-.576.07L11 6.07l-.708.707a.5.5 0 0 1-.176.305l2.52 1.81a.5.5 0 0 1 .12.355l-1.81.707a.5.5 0 0 1-.354-.192l2.769-.707zM4.5 8a.5.5 0 0 1 .5.5h7a.5.5 0 0 1 0 1h-7a.5.5 0 0 1-.5-.5zM4 11.5a.5.5 0 0 1 .5.5h7a.5.5 0 0 1 0 1h-7a.5.5 0 0 1-.5-.5zM8.707 9.293a.5.5 0 0 0-.708-.708l-7 7a.5.5 0 0 0 .708.708l7-7a.5.5 0 0 0 0-1zm1.414 2.828l-.707-.707a.5.5 0 0 0-.708.708l7 7a.5.5 0 0 0 .708-.708l-7-7a.5.5 0 0 0-.708.708zM8 4.5a.5.5 0 0 1 .5-.5h9a.5.5 0 0 1 .318.163l-6.5 6.632a.5.5 0 0 1-.863-.5L8.5 4.16a.5.5 0 0 1 .514-.13l6.5-6.631a.5.5 0 0 1 .318.164L8.5 4.5a.5.5 0 0 1-.5-.5H3.707z"/>
</svg>
