<svg xmlns="http://www.w3.org/2000/svg" width="100" height="100" fill="currentColor" viewBox="0 0 16 16">
  <path d="M14 1a1 1 0 0 1-1 1H2a1 1 0 0 1-1-1V1a1 1 0 0 1 1-1h12zM2 4a2 2 0 0 0-2 2v6a2 2 0 0 0 2 2h12a2 2 0 0 0 2-2V4a2 2 0 0 0-2-2H2z"/>
  <path d="M5 7.5a.5.5 0 0 1 .5-.5h5a.5.5 0 0 1 .354.19l-.707 2.769a.5.5 0 0 1-.176.12l-2.52-1.81a.5.5 0 0 1-.3-.3l1.81-.707a.5.5 0 0 1 2.12.354l2.769-.707a.5.5 0 0 1 .12.176l-2.52 1.81a.5.5 0 0 1-.3.12l-1.81.707a.5.5 0 0 1-.12.354l-2.769.707a.5.5 0 0 1-.12.176l-2.52-1.81a.5.5 0 0 1-.3-.3l1.81-.707a.5.5 0 0 1-.354-.19l-.707-2.769A.5.5 0 0 1 8 2.5V5a.5.5 0 0 1-.5.5H5z"/>
</svg>
