<svg xmlns="http://www.w3.org/2000/svg" viewBox="0 0 1600 760" role="img" aria-labelledby="t d"><title id="t">R.K Digital Media service system</title><desc id="d">Six digital marketing capabilities connected to a measurable business outcome.</desc><rect width="1600" height="760" fill="#0b0b0c"/><text x="100" y="90" fill="#B22222" font-family="Arial,sans-serif" font-size="22" font-weight="700" letter-spacing="5">R.K DIGITAL MEDIA / SERVICE SYSTEM</text><text x="100" y="150" fill="#fff" font-family="Arial,sans-serif" font-size="48" font-weight="800">ONE BUSINESS GOAL. THE RIGHT SYSTEM.</text><g fill="#151518" stroke="#303034"><rect x="100" y="230" width="390" height="120" rx="18"/><rect x="605" y="230" width="390" height="120" rx="18"/><rect x="1110" y="230" width="390" height="120" rx="18"/><rect x="100" y="430" width="390" height="120" rx="18"/><rect x="605" y="430" width="390" height="120" rx="18"/><rect x="1110" y="430" width="390" height="120" rx="18"/></g><g fill="#B22222" font-family="Arial,sans-serif" font-size="18" font-weight="800"><text x="130" y="275">01 / PAID ACQUISITION</text><text x="635" y="275">02 / SEARCH VISIBILITY</text><text x="1140" y="275">03 / LOCAL DISCOVERY</text><text x="130" y="475">04 / WEBSITE + CRO</text><text x="635" y="475">05 / RECOVERY</text><text x="1140" y="475">06 / AUTOMATION</text></g><g fill="#fff" font-family="Arial,sans-serif" font-size="24" font-weight="700"><text x="130" y="315">Google Ads</text><text x="635" y="315">SEO</text><text x="1140" y="315">Google Business Profile</text><text x="130" y="515">Web Development</text><text x="635" y="515">Ads Suspension Support</text><text x="1140" y="515">Lead + CRM Workflows</text></g><path d="M800 590v80M800 670H350M800 670h450" stroke="#B22222" stroke-width="4" fill="none"/><text x="800" y="725" text-anchor="middle" fill="#fff" font-family="Arial,sans-serif" font-size="25" font-weight="800">MEASURED BUSINESS OUTCOME</text></svg>